<svg version="1.1" id="Layer_1_1_" xmlns="http://www.w3.org/2000/svg" xmlns:xlink="http://www.w3.org/1999/xlink" x="0px" y="0px"
	 viewBox="0 0 64 64" style="enable-background:new 0 0 64 64;" xml:space="preserve">
<path d="M57.075,15.257l-1.078,0.155c-1.094,0.159-2.194,0.093-3.264-0.194c-2.615-0.7-5.344-0.341-7.688,1.012L15.009,33.572
	l-9.216-4.557c-0.301-0.149-0.654-0.137-0.943,0.03l-3.464,2c-0.479,0.276-0.642,0.888-0.366,1.366l7.5,12.99
	c0.218,0.377,0.656,0.569,1.082,0.477l19.455-4.304c0.1-0.022,0.196-0.06,0.284-0.11l2.598-1.5l7,12.124
	c0.186,0.321,0.521,0.5,0.867,0.5c0.169,0,0.341-0.043,0.499-0.134l6.062-3.5c0.373-0.215,0.566-0.645,0.479-1.067L43.82,33.104
	l16.196-9.351c1.059-0.611,1.816-1.599,2.133-2.78c0.316-1.181,0.154-2.415-0.458-3.474C60.75,15.87,58.94,14.988,57.075,15.257z
	 M5.386,31.045l7.541,3.728l-6.176,3.566l-3.5-6.062L5.386,31.045z M60.217,20.456c-0.178,0.665-0.604,1.221-1.201,1.565
	l-16.82,9.711c-0.373,0.215-0.566,0.645-0.479,1.067l3.025,14.784l-4.572,2.64l-7-12.124c-0.133-0.229-0.351-0.397-0.607-0.466
	c-0.085-0.023-0.172-0.034-0.259-0.034c-0.174,0-0.347,0.045-0.5,0.134l-3.331,1.923L9.885,43.767l-2.133-3.695l7.794-4.5
	l30.5-17.609c1.716-0.991,3.689-1.309,5.615-0.933l-2.206,1.273l1,1.732l4.33-2.5l-0.031-0.053c0.509,0.004,1.018-0.018,1.528-0.091
	l1.078-0.155c1.047-0.154,2.069,0.344,2.6,1.263C60.304,19.096,60.396,19.791,60.217,20.456z"/>
<rect x="2" y="60" width="60" height="2"/>
<rect x="45.491" y="20.17" transform="matrix(0.8661 -0.4999 0.4999 0.8661 -4.3569 26.0768)" width="2" height="2"/>
<rect x="42.026" y="22.17" transform="matrix(0.8661 -0.4999 0.4999 0.8661 -5.8207 24.6127)" width="2" height="2"/>
<rect x="38.562" y="24.17" transform="matrix(0.8661 -0.4999 0.4999 0.8661 -7.2844 23.1489)" width="2" height="2"/>
<rect x="35.098" y="26.17" transform="matrix(0.8661 -0.4999 0.4999 0.8661 -8.7483 21.6849)" width="2" height="2"/>
<rect x="31.634" y="28.17" transform="matrix(0.8661 -0.4999 0.4999 0.8661 -10.212 20.2211)" width="2" height="2"/>
<rect x="28.17" y="30.17" transform="matrix(0.8661 -0.4999 0.4999 0.8661 -11.6758 18.7572)" width="2" height="2"/>
<rect x="24.706" y="32.17" transform="matrix(0.8661 -0.4999 0.4999 0.8661 -13.1396 17.2932)" width="2" height="2"/>
<rect x="21.242" y="34.17" transform="matrix(0.8661 -0.4999 0.4999 0.8661 -14.6033 15.8293)" width="2" height="2"/>
<rect x="17.778" y="36.17" transform="matrix(0.8661 -0.4999 0.4999 0.8661 -16.0671 14.3654)" width="2" height="2"/>
</svg>
